<?xml version="1.0" encoding="UTF-8" standalone="no"?>
<svg
   viewBox="0 0 1248 832"
   width="1248"
   height="832"
   version="1.1"
   id="svg1"
   sodipodi:docname="shoreline_single_path.svg"
   inkscape:version="1.4.2 (f4327f4, 2025-05-13)"
   xmlns:inkscape="http://www.inkscape.org/namespaces/inkscape"
   xmlns:sodipodi="http://sodipodi.sourceforge.net/DTD/sodipodi-0.dtd"
   xmlns="http://www.w3.org/2000/svg"
   xmlns:svg="http://www.w3.org/2000/svg">
  <defs
     id="defs1" />
  <sodipodi:namedview
     id="namedview1"
     pagecolor="#ffffff"
     bordercolor="#000000"
     borderopacity="0.25"
     inkscape:showpageshadow="2"
     inkscape:pageopacity="0.0"
     inkscape:pagecheckerboard="0"
     inkscape:deskcolor="#d1d1d1"
     inkscape:zoom="1.0228365"
     inkscape:cx="392.047"
     inkscape:cy="506.92362"
     inkscape:window-width="1920"
     inkscape:window-height="1111"
     inkscape:window-x="-9"
     inkscape:window-y="-9"
     inkscape:window-maximized="1"
     inkscape:current-layer="svg1" />
  <path
     id="shoreline"
     d="m 718.4393,527.78321 c 0.0648,-2.74285 18.93838,-12.7389 19.22741,-12.44988 m 0,0 c 0.81871,0.81872 5.35238,0.74757 11.33333,-0.17785 H 749 c 3.28567,-0.50839 4.43141,-1.11641 4.24582,-2.25317 -0.52242,-3.20001 15.7172,-4.62941 19.42582,-1.70985 0.73658,0.57987 1.91925,0.45547 3.18501,-0.33501 1.53258,-0.95711 1.87678,-1.94029 1.44139,-4.11723 -0.31458,-1.57292 0.0136,-3.9541 0.7294,-5.2915 0.99553,-1.86017 1.03659,-3.01278 0.17468,-4.90447 -0.61969,-1.36005 -0.79346,-2.67878 -0.38617,-2.9305 0.40729,-0.25172 4.55282,-0.93954 9.21229,-1.52849 13.75528,-1.73865 19.25555,-3.20707 22.22176,-5.93259 1.5125,-1.38977 2.75,-3.30513 2.75,-4.25635 0,-0.95123 -1.2375,-2.6789 -2.75,-3.83927 -2.75,-2.10976 -2.75,-2.10976 5.25,-1.90507 4.4,0.11258 8.91874,-0.10113 10.04164,-0.4749 2.08117,-0.69275 13.73228,-2.48282 20.95836,-3.22004 2.2,-0.22444 6.925,-1.4316 10.5,-2.68256 5.33692,-1.8675 6.7684,-2.85215 8,-5.50284 1.26501,-2.7226 2.04831,-3.23406 5,-3.26474 4.62699,-0.0481 8.42785,-2.05729 8.80269,-4.65323 0.24044,-1.6652 1.24389,-2.22527 4.87979,-2.72363 7.43973,-1.01973 11.60056,-4.3252 13.69546,-10.88004 0.30761,-0.9625 1.43406,-1.75 2.50323,-1.75 1.06917,0 4.63668,-2.25 7.92781,-5 3.29112,-2.75 6.83533,-5 7.876,-5 1.04067,0 3.65743,-0.9 5.81502,-2 2.15759,-1.1 5.56631,-2 7.57495,-2 6.84041,0 14.35502,-1.91676 16.18974,-4.12954 1.352,-1.63059 4.2753,-2.5781 12.5,-4.05158 5.90442,-1.05779 11.74781,-2.58514 12.98531,-3.39412 3.26007,-2.13117 3.0936,-7.61603 -0.31248,-10.29525 -2.59531,-2.04147 -4.27235,-2.67783 -14.79021,-5.61223 -5.53651,-1.54464 -5.76481,-1.72997 -4.22589,-3.43045 1.66698,-1.842 1.22067,-5.08683 -0.69967,-5.08683 -0.58535,0 -1.81992,-0.68385 -2.74349,-1.51967 -0.92357,-0.83582 -6.12222,-2.64673 -11.55255,-4.02425 -5.43034,-1.37752 -9.79098,-3.67306 -10.59232,-3.78932 -2.02764,-0.29417 -7.33319,-0.87236 -13.90132,-0.60046 M 153.34566,830.10006 c 0.5882,-0.70591 4.82294,-2.50885 13.15434,-5.3139 10.51358,-3.53975 22.75615,-6.14742 39,-8.30702 25.32713,-3.3672 43.70192,-8.20702 79.04797,-20.82081 24.40526,-8.70939 57.20713,-17.52663 72.95203,-19.60972 3.3,-0.4366 14.325,-2.16648 24.5,-3.84419 10.175,-1.67771 20.76879,-3.33938 23.54175,-3.6926 2.77296,-0.35322 6.14796,-0.79899 7.5,-0.99062 1.35204,-0.19162 13.25825,-2.60121 26.45825,-5.35464 36.45661,-7.6046 48.3588,-11.95023 56.28662,-20.5509 4.68227,-5.07966 5.26745,-8.15715 2.71338,-14.2699 -3.26298,-7.8094 -1.0953,-11.117 12.0363,-18.3658 7.28868,-4.02344 7.42101,-4.05404 10.05822,-2.32607 3.38096,2.21529 12.51871,2.15716 15.96596,-0.10156 2.7806,-1.82192 3.2977,-6.00904 0.85773,-6.94534 -0.86998,-0.33385 -3.00748,-0.61457 -4.75,-0.62384 -3.16821,-0.0168 -3.16821,-0.0168 0.19497,-2.16986 2.73402,-1.75025 3.71362,-1.93417 5.23643,-0.98315 2.31845,1.44789 8.37342,1.52225 10.96613,0.13468 1.06384,-0.56935 1.93426,-1.86687 1.93426,-2.88337 0,-1.96995 -2.57801,-3.04495 -7.35699,-3.0678 -2.3253,-0.0111 -2.72347,-0.33933 -2.13952,-1.76365 0.3946,-0.9625 0.95395,-3.68624 1.24298,-6.05275 0.5017,-4.1077 0.30349,-4.5157 -4.37235,-9 -2.69383,-2.58349 -6.69253,-5.2877 -8.886,-6.00936 -10.53652,-3.46657 -24.14336,-8.63294 -25.48812,-9.67756 -0.825,-0.64087 -3.94717,-1.2466 -6.93815,-1.34605 C 489.6339,655.91729 487,654.04818 487,649.024 c 0,-5.71216 -1.77021,-8.73832 -6.40379,-10.94719 -4.60504,-2.19526 -30.40233,-6.62938 -44.09621,-7.57938 -11.20533,-0.77737 -12.5,-1.14984 -12.5,-3.5962 0,-2.3496 -2.67606,-3.62517 -4.26722,-2.03401 C 419.10975,625.49025 417.565,626 416.3,626 c -1.265,0 -2.3,0.45 -2.3,1 0,0.61925 -5.35301,1 -14.05902,1 -7.73246,0 -13.82767,-0.37432 -13.54492,-0.83182 0.28275,-0.4575 3.70946,-1.40286 7.61491,-2.1008 7.14015,-1.27602 13.98903,-0.79723 13.98903,0.97793 0,2.13089 2.63359,0.76377 3.63392,-1.8864 0.78618,-2.08284 2.11241,-3.13404 4.96923,-3.93877 5.91313,-1.66563 14.25281,-4.73857 20.59726,-7.58952 3.13523,-1.40885 9.66023,-3.30698 14.5,-4.21806 4.83978,-0.91109 9.55599,-2.03603 10.48048,-2.49986 0.92449,-0.46383 6.77449,-2.02871 13,-3.47751 7.60988,-1.77096 13.12207,-3.71841 16.82102,-5.94283 3.02605,-1.81976 7.30105,-3.61767 9.5,-3.99536 2.19895,-0.37769 5.34809,-1.06774 6.99809,-1.53344 1.65,-0.4657 6.825,-1.35959 11.5,-1.98643 5.46641,-0.73295 11.27545,-2.35641 16.27672,-4.54887 4.2772,-1.87504 13.9522,-5.00818 21.5,-6.96253 15.80119,-4.09139 25.70456,-8.56196 27.75638,-12.52973 0.76611,-1.4815 2.07909,-2.95694 2.91774,-3.27876 3.13235,-1.202 11.1509,-1.70703 14.01874,-0.88294 2.00131,0.57509 3.82104,0.42856 5.58088,-0.44936 1.43622,-0.71648 6.39991,-1.97533 11.03042,-2.79746 4.63052,-0.82212 11.34412,-2.40038 14.91912,-3.50724 3.575,-1.10687 12.125,-3.3535 19,-4.99252 13.37153,-3.18782 22.88442,-6.25958 26.3548,-8.5101 2.19737,-1.42498 8.66055,-3.0839 23.6452,-6.06904 9.62635,-1.9177 15.26969,-3.33489 15.4393,-6.66537"
     fill="none"
     stroke="#0066cc"
     stroke-width="3"
     sodipodi:nodetypes="cccsssssssssssssssssssssssssssssssssssssccssssssssssssssssssssssssssssssssssssssssssssssssssssssssssc" />
</svg>
