<?xml version="1.0" encoding="UTF-8" standalone="no"?>
<svg
   viewBox="0 0 1248 832"
   width="1248"
   height="832"
   version="1.1"
   id="svg1"
   sodipodi:docname="shoreline_path.svg"
   inkscape:version="1.4.2 (f4327f4, 2025-05-13)"
   xmlns:inkscape="http://www.inkscape.org/namespaces/inkscape"
   xmlns:sodipodi="http://sodipodi.sourceforge.net/DTD/sodipodi-0.dtd"
   xmlns="http://www.w3.org/2000/svg"
   xmlns:svg="http://www.w3.org/2000/svg">
  <defs
     id="defs1" />
  <sodipodi:namedview
     id="namedview1"
     pagecolor="#ffffff"
     bordercolor="#000000"
     borderopacity="0.25"
     inkscape:showpageshadow="2"
     inkscape:pageopacity="0.0"
     inkscape:pagecheckerboard="0"
     inkscape:deskcolor="#d1d1d1"
     inkscape:zoom="1.4465093"
     inkscape:cx="722.42881"
     inkscape:cy="617.0026"
     inkscape:window-width="1920"
     inkscape:window-height="1111"
     inkscape:window-x="-9"
     inkscape:window-y="-9"
     inkscape:window-maximized="1"
     inkscape:current-layer="svg1" />
  <path
     id="shoreline"
     d="m 718.4393,527.78321 c 0.0648,-2.74285 18.93838,-12.7389 19.22741,-12.44988 m 0,0 c 0.81871,0.81872 5.35238,0.74757 11.33333,-0.17785 H 749 c 3.28567,-0.50839 4.43141,-1.11641 4.24582,-2.25317 -0.52242,-3.20001 15.7172,-4.62941 19.42582,-1.70985 0.73658,0.57987 1.91925,0.45547 3.18501,-0.33501 1.53258,-0.95711 1.87678,-1.94029 1.44139,-4.11723 -0.31458,-1.57292 0.0136,-3.9541 0.7294,-5.2915 0.99553,-1.86017 1.03659,-3.01278 0.17468,-4.90447 -0.61969,-1.36005 -0.79346,-2.67878 -0.38617,-2.9305 0.40729,-0.25172 4.55282,-0.93954 9.21229,-1.52849 13.75528,-1.73865 19.25555,-3.20707 22.22176,-5.93259 1.5125,-1.38977 2.75,-3.30513 2.75,-4.25635 0,-0.95123 -1.2375,-2.6789 -2.75,-3.83927 -2.75,-2.10976 -2.75,-2.10976 5.25,-1.90507 4.4,0.11258 8.91874,-0.10113 10.04164,-0.4749 2.08117,-0.69275 13.73228,-2.48282 20.95836,-3.22004 2.2,-0.22444 6.925,-1.4316 10.5,-2.68256 5.33692,-1.8675 6.7684,-2.85215 8,-5.50284 1.26501,-2.7226 2.04831,-3.23406 5,-3.26474 4.62699,-0.0481 8.42785,-2.05729 8.80269,-4.65323 0.24044,-1.6652 1.24389,-2.22527 4.87979,-2.72363 7.43973,-1.01973 11.60056,-4.3252 13.69546,-10.88004 0.30761,-0.9625 1.43406,-1.75 2.50323,-1.75 1.06917,0 4.63668,-2.25 7.92781,-5 3.29112,-2.75 6.83533,-5 7.876,-5 1.04067,0 3.65743,-0.9 5.81502,-2 2.15759,-1.1 5.56631,-2 7.57495,-2 6.84041,0 14.35502,-1.91676 16.18974,-4.12954 1.352,-1.63059 4.2753,-2.5781 12.5,-4.05158 5.90442,-1.05779 11.74781,-2.58514 12.98531,-3.39412 3.26007,-2.13117 3.0936,-7.61603 -0.31248,-10.29525 -2.59531,-2.04147 -4.27235,-2.67783 -14.79021,-5.61223 -5.53651,-1.54464 -5.76481,-1.72997 -4.22589,-3.43045 1.66698,-1.842 1.22067,-5.08683 -0.69967,-5.08683 -0.58535,0 -1.81992,-0.68385 -2.74349,-1.51967 -0.92357,-0.83582 -6.12222,-2.64673 -11.55255,-4.02425 -5.43034,-1.37752 -10.19689,-3.08271 -10.59232,-3.78932 -0.67083,-1.19871 -5.69741,-0.95471 -14.33339,0.69576 -1.1,0.21023 -2.36406,0.43966 -2.80902,0.50986 -0.44496,0.0702 -0.55036,0.54613 -0.23423,1.05763 0.31612,0.51151 3.15518,1.21017 6.30901,1.55259 3.15383,0.34242 6.78444,0.84195 8.06803,1.11007 1.65131,0.34493 2.1151,0.13364 1.58595,-0.72253 -0.52126,-0.84342 -0.21891,-1.00705 0.998,-0.54008 0.96021,0.36847 2.63559,0.66994 3.72306,0.66994 1.08748,0 1.72153,0.41373 1.40901,0.91941 -0.54298,0.87855 3.70921,2.63086 7.95019,3.27624 1.1,0.16739 2.63404,1.15756 3.40897,2.20036 1.2745,1.71505 1.08362,2.16164 -2,4.67912 -3.40897,2.78311 -3.40897,2.78311 -0.42922,3.91659 1.63887,0.62342 6.79913,2.02404 11.46726,3.11251 12.44465,2.90171 15.31523,6.72805 6.26736,8.35408 -6.98169,1.25471 -17.68203,4.76439 -19.93947,6.5401 -1.45877,1.14746 -5.78549,2.22361 -12.2551,3.04809 -7.25145,0.92411 -10.4551,1.77702 -11.655,3.1029 -0.91012,1.00566 -4.33155,2.57955 -7.60318,3.49752 -5.6428,1.58329 -5.92072,1.80757 -5.40919,4.36523 0.29658,1.4829 10e-4,3.23847 -0.6566,3.90126 -0.93003,0.93723 -0.82934,1.06562 0.45302,0.57766 0.90687,-0.34508 1.92767,-0.17627 2.26846,0.37513 0.40072,0.64838 -1.46852,0.81634 -5.29134,0.47545 -6.6897,-0.59654 -9.83026,0.57894 -10.30613,3.8575 -0.27999,1.92901 -1.46481,2.42787 -9.5103,4.0043 C 863.75786,448.66282 862,449.4231 862,452.39239 c 0,2.12379 -0.65773,2.58294 -5.04922,3.52475 -2.77707,0.59557 -6.1417,1.08286 -7.47695,1.08286 -1.44357,0 -3.05084,0.95099 -3.96483,2.34592 -1.77936,2.71565 -7.34615,4.63511 -13.62502,4.69797 -2.41119,0.0241 -6.18398,0.74808 -8.38398,1.60874 -2.2955,0.89803 -9.13702,1.86164 -16.05523,2.26134 -10.02861,0.5794 -12.38283,1.02409 -14.00394,2.6452 -1.07179,1.07179 -4.52338,2.82387 -7.6702,3.8935 -5.41738,1.84143 -5.9917,1.85838 -10.80543,0.31901 -4.43451,-1.4181 -5.15602,-1.43797 -5.64812,-0.1556 -0.81894,2.13412 -0.24902,2.40376 7.32662,3.4663 13.20306,1.85184 13.92489,3.35056 2.1063,4.37329 -9.10029,0.78749 -30.98211,5.063 -33.89745,6.62325 -2.73147,1.46183 -2.30971,5.42125 0.82034,7.70134 2.6729,1.94706 2.6729,1.94706 -0.0568,3.73566 -1.50135,0.98372 -4.95416,2.00233 -7.67289,2.26356 -5.37675,0.51664 -4.27359,5.12723 -18.21727,10.87656 -23.14681,9.54404 -25.54677,6.09915 -27.59152,8.00411 -2.73051,2.54386 -10.91993,4.93122 -21.2032,6.18112 -4.16284,0.50598 -8.97107,1.6451 -10.68496,2.53139 -1.73356,0.89646 -6.58359,1.81596 -10.9312,2.07242 -16.86316,0.99474 -24.93786,2.98565 -28.23837,6.96252 -0.7027,0.84671 -2.91993,1.81665 -4.92716,2.15543 -2.00724,0.33877 -7.00159,1.52433 -11.09856,2.63456 -5.50152,1.49086 -8.7696,1.83321 -12.5,1.30946 -9.46278,-1.32859 -17.55174,-0.59088 -21.981,2.00464 -2.23848,1.31174 -6.09496,2.66157 -8.56996,2.99962 -2.475,0.33805 -5.61864,0.84651 -6.98587,1.12991 -2.30944,0.47871 -2.35245,0.58994 -0.60609,1.56726 1.12227,0.62805 4.54188,0.80799 8.48587,0.44653 3.63335,-0.33299 7.23416,-0.21201 8.00181,0.26885 2.528,1.58357 0.28719,3.9671 -5.24019,5.57395 -4.74735,1.38009 -7.92846,1.44183 -25.00777,0.48532 -14.14217,-0.79201 -20.1341,-0.79322 -21.60814,-0.004 -3.82201,2.04548 -1.90121,4.36818 4.87061,5.8897 6.02826,1.35447 6.90183,2.55367 3.48814,4.78841 -2.33251,1.52696 -4.28051,1.7731 -11.3569,1.435 -9.95897,-0.47582 -12.83911,-0.46858 -23.24689,0.0584 -6.62505,0.33544 -8.09726,0.75575 -10.5,2.99775 -1.53702,1.43418 -3.88818,3.17183 -5.2248,3.86143 -2.21192,1.14119 -2.27929,1.36419 -0.75,2.48243 0.92412,0.67573 1.68022,1.49841 1.68022,1.82818 0,0.97104 -12.10028,4.42362 -18.15462,5.18005 -4.93993,0.61721 -5.81512,0.44874 -7.59526,-1.46201 -1.95808,-2.10176 -2.44456,-2.14059 -18.16417,-1.44976 -8.88371,0.3904 -16.35734,1.04175 -16.60806,1.44744 -1.04519,1.69114 2.56656,2.8865 9.56679,3.16627 7.17957,0.28693 7.45532,0.38924 7.45532,2.76613 0,1.8336 -1.02844,3.05331 -4,4.74394 -8.43987,4.80175 -14.63848,6.3944 -30.46518,7.82761 -20.98558,1.90038 -22.95687,2.2655 -27.26338,5.04971 C 369.68212,612.58673 367.7674,613 361.60323,613 c -12.33548,0 -13.70762,-1.60108 -4.85323,-5.66303 4.94023,-2.26633 7.22871,-2.66027 16.25,-2.79727 8.33401,-0.12655 12.2382,-0.71438 18.92623,-2.84957 C 396.56065,600.21056 402.3126,599 404.70834,599 c 5.2258,0 11.63865,-2.45903 11.0464,-4.23577 -0.23177,-0.69533 -0.83391,-1.24389 -1.33807,-1.21902 -0.50417,0.0249 -4.43559,0.41818 -8.73649,0.87403 -5.17224,0.5482 -9.74298,0.43883 -13.5,-0.32305 -5.45174,-1.10554 -5.76061,-1.05536 -7.68018,1.24762 -1.1,1.31971 -2.97954,2.90543 -4.17676,3.52382 -2.49984,1.29122 -22.59756,4.11229 -29.38211,4.1243 -2.50738,0.004 -5.43238,0.66812 -6.5,1.47485 -1.06762,0.80673 -4.4636,1.97749 -7.54663,2.60168 -9.86257,1.99678 -10.5018,3.70313 -1.79173,4.7828 4.915,0.60925 7.69072,2.68075 4.73039,3.53025 -5.58863,1.60373 -25.04002,9.14418 -25.49739,9.88422 -1.00445,1.62523 2.0106,3.64314 10.79357,7.22392 8.55684,3.48859 8.55684,3.48859 37.21041,3.87425 29.14941,0.39234 31.66025,0.73203 31.66025,4.2833 0,2.26822 -4.53073,3.3528 -14.00608,3.3528 -4.88174,0 -9.13398,0.4176 -9.44942,0.928 -0.77873,1.26 1.60289,1.85567 10.4555,2.61504 4.125,0.35384 9.19084,1.06966 11.25741,1.5907 2.06658,0.52104 11.42277,0.94734 20.79153,0.94734 17.40343,0 21.52377,0.64183 22.6302,3.52516 0.63966,1.66692 -4.09021,6.48552 -9.92914,10.11539 -5.94213,3.69403 -3.09449,5.46312 11.81836,7.34212 10.07023,1.26884 19.44035,4.42493 33.43164,11.26058 5.33472,2.60636 6.55564,3.65745 6.81038,5.86305 0.22233,1.92504 -0.34502,3.1089 -2,4.17327 -2.19747,1.41326 -22.8395,6.80527 -31.27313,8.16901 -3.96274,0.64079 -3.96274,0.64079 -1.5,2.50157 1.64304,1.24144 2.12991,2.19435 1.46275,2.86296 -1.51073,1.51401 -22.1869,7.77966 -31.5058,9.54742 C 408.47588,716.29873 402.57437,717 399.87974,717 c -3.70998,0 -5.32176,0.49844 -6.63953,2.05325 -0.95711,1.1293 -3.65271,2.90399 -5.99021,3.94377 -4.50977,2.00607 -5.71467,5.08393 -2.65953,6.79367 0.9541,0.53395 1.45424,1.85418 1.25,3.29969 -0.52686,3.72875 -5.74825,5.57729 -22.10697,7.82656 -15.82015,2.17523 -18.7335,3.10767 -18.7335,5.9958 0,4.3007 -3.73088,5.39019 -27.81764,8.1233 C 299.44592,757.04859 295,758.02717 295,759.91855 c 0,0.4665 0.94741,1.09594 2.10536,1.39875 3.52526,0.92188 1.55873,3.04501 -4.68288,5.05579 -4.85839,1.56517 -9.59164,1.96393 -26.3441,2.21942 -20.42162,0.31145 -20.42162,0.31145 -25.5,3.77696 -2.79311,1.90603 -6.87838,3.92528 -9.07838,4.48722 -6.46082,1.65027 -26.15048,3.16109 -37.69373,2.89231 -6.83456,-0.15914 -11.09737,0.15239 -11.81224,0.86324 -0.82233,0.81772 -0.0429,1.28424 2.94373,1.76182 4.09104,0.65418 5.25919,1.95265 2.65553,2.95177 -0.77369,0.29689 -5.65458,0.85161 -10.84642,1.23272 -7.75514,0.56926 -11.45176,0.29228 -20.71456,-1.55212 -14.24901,-2.83724 -18.31696,-2.35894 -26.76839,3.14738 -7.50398,4.88904 -15.47226,7.27793 -31.121557,9.33025 C 87.59019,798.86792 82,800.7437 82,802.90061 c 0,1.72733 3.007277,3.26623 7.692426,3.93641 3.807338,0.54461 4.807574,1.08138 4.807574,2.57991 0,2.2879 -8.480524,-5.40761 -27.15434,10.09971 -34.531557,28.67608 85.725,10.91345 86,10.58342 0.5882,-0.70591 4.82294,-2.50885 13.15434,-5.3139 10.51358,-3.53975 22.75615,-6.14742 39,-8.30702 25.32713,-3.3672 43.70192,-8.20702 79.04797,-20.82081 24.40526,-8.70939 57.20713,-17.52663 72.95203,-19.60972 3.3,-0.4366 14.325,-2.16648 24.5,-3.84419 10.175,-1.67771 20.76879,-3.33938 23.54175,-3.6926 2.77296,-0.35322 6.14796,-0.79899 7.5,-0.99062 1.35204,-0.19162 13.25825,-2.60121 26.45825,-5.35464 36.45661,-7.6046 48.3588,-11.95023 56.28662,-20.5509 4.68227,-5.07966 5.26745,-8.15715 2.71338,-14.2699 -3.26298,-7.8094 -1.0953,-11.117 12.0363,-18.3658 7.28868,-4.02344 7.42101,-4.05404 10.05822,-2.32607 3.38096,2.21529 12.51871,2.15716 15.96596,-0.10156 2.7806,-1.82192 3.2977,-6.00904 0.85773,-6.94534 -0.86998,-0.33385 -3.00748,-0.61457 -4.75,-0.62384 -3.16821,-0.0168 -3.16821,-0.0168 0.19497,-2.16986 2.73402,-1.75025 3.71362,-1.93417 5.23643,-0.98315 2.31845,1.44789 8.37342,1.52225 10.96613,0.13468 1.06384,-0.56935 1.93426,-1.86687 1.93426,-2.88337 0,-1.96995 -2.57801,-3.04495 -7.35699,-3.0678 -2.3253,-0.0111 -2.72347,-0.33933 -2.13952,-1.76365 0.3946,-0.9625 0.95395,-3.68624 1.24298,-6.05275 0.5017,-4.1077 0.30349,-4.5157 -4.37235,-9 -2.69383,-2.58349 -6.69253,-5.2877 -8.886,-6.00936 -10.53652,-3.46657 -24.14336,-8.63294 -25.48812,-9.67756 -0.825,-0.64087 -3.94717,-1.2466 -6.93815,-1.34605 C 489.6339,655.91729 487,654.04818 487,649.024 c 0,-5.71216 -1.77021,-8.73832 -6.40379,-10.94719 -4.60504,-2.19526 -30.40233,-6.62938 -44.09621,-7.57938 -11.20533,-0.77737 -12.5,-1.14984 -12.5,-3.5962 0,-2.3496 -2.67606,-3.62517 -4.26722,-2.03401 C 419.10975,625.49025 417.565,626 416.3,626 c -1.265,0 -2.3,0.45 -2.3,1 0,0.61925 -5.35301,1 -14.05902,1 -7.73246,0 -13.82767,-0.37432 -13.54492,-0.83182 0.28275,-0.4575 3.70946,-1.40286 7.61491,-2.1008 7.14015,-1.27602 13.98903,-0.79723 13.98903,0.97793 0,2.13089 2.63359,0.76377 3.63392,-1.8864 0.78618,-2.08284 2.11241,-3.13404 4.96923,-3.93877 5.91313,-1.66563 14.25281,-4.73857 20.59726,-7.58952 3.13523,-1.40885 9.66023,-3.30698 14.5,-4.21806 4.83978,-0.91109 9.55599,-2.03603 10.48048,-2.49986 0.92449,-0.46383 6.77449,-2.02871 13,-3.47751 7.60988,-1.77096 13.12207,-3.71841 16.82102,-5.94283 3.02605,-1.81976 7.30105,-3.61767 9.5,-3.99536 2.19895,-0.37769 5.34809,-1.06774 6.99809,-1.53344 1.65,-0.4657 6.825,-1.35959 11.5,-1.98643 5.46641,-0.73295 11.27545,-2.35641 16.27672,-4.54887 4.2772,-1.87504 13.9522,-5.00818 21.5,-6.96253 15.80119,-4.09139 25.70456,-8.56196 27.75638,-12.52973 0.76611,-1.4815 2.07909,-2.95694 2.91774,-3.27876 3.13235,-1.202 11.1509,-1.70703 14.01874,-0.88294 2.00131,0.57509 3.82104,0.42856 5.58088,-0.44936 1.43622,-0.71648 6.39991,-1.97533 11.03042,-2.79746 4.63052,-0.82212 11.34412,-2.40038 14.91912,-3.50724 3.575,-1.10687 12.125,-3.3535 19,-4.99252 13.37153,-3.18782 22.88442,-6.25958 26.3548,-8.5101 2.19737,-1.42498 8.66055,-3.0839 23.6452,-6.06904 9.62635,-1.9177 15.26969,-3.33489 15.4393,-6.66537"
     fill="none"
     stroke="#0066cc"
     stroke-width="3"
     sodipodi:nodetypes="cccssssssssssssssssssssssssssssssssssssssssssssssssssssssssssssssssssssssssssssssssssssssssssssssssscsssssssssssssssscssssssssssscssssssssssssssssssssssssssssssssssssssssssssssssssssssssssssssssssssssssssssssssssssssssssssssssssssssssssssc" />
</svg>
