<svg width="1248" height="832" xmlns="http://www.w3.org/2000/svg"><path d="M718.44 527.783c.064-2.743 18.938-12.739 19.227-12.45m0 0c.818.82 5.352.748 11.333-.178h0c3.286-.508 4.431-1.116 4.246-2.253-.523-3.2 15.717-4.63 19.426-1.71.736.58 1.919.456 3.185-.335 1.532-.957 1.876-1.94 1.441-4.117-.315-1.573.014-3.954.73-5.291.995-1.86 1.036-3.013.174-4.905-.62-1.36-.793-2.679-.386-2.93.407-.252 4.553-.94 9.212-1.529 13.756-1.738 19.256-3.207 22.222-5.932 1.513-1.39 2.75-3.305 2.75-4.257 0-.95-1.237-2.679-2.75-3.839-2.75-2.11-2.75-2.11 5.25-1.905 4.4.113 8.919-.101 10.042-.475 2.08-.693 13.732-2.483 20.958-3.22 2.2-.224 6.925-1.432 10.5-2.683 5.337-1.867 6.768-2.852 8-5.502 1.265-2.723 2.048-3.234 5-3.265 4.627-.048 8.428-2.057 8.803-4.653.24-1.666 1.244-2.226 4.88-2.724 7.44-1.02 11.6-4.325 13.695-10.88.308-.963 1.434-1.75 2.503-1.75 1.07 0 4.637-2.25 7.928-5 3.291-2.75 6.835-5 7.876-5 1.04 0 3.657-.9 5.815-2 2.158-1.1 5.566-2 7.575-2 6.84 0 14.355-1.917 16.19-4.13 1.352-1.63 4.275-2.578 12.5-4.051 5.904-1.058 11.748-2.585 12.985-3.394 3.26-2.131 3.094-7.616-.312-10.295-2.596-2.042-4.273-2.678-14.79-5.613-5.537-1.544-5.765-1.73-4.227-3.43 1.667-1.842 1.221-5.087-.7-5.087-.585 0-1.82-.684-2.743-1.52-.923-.835-6.122-2.646-11.552-4.024-5.43-1.377-9.791-3.673-10.593-3.79-2.027-.293-7.333-.872-13.9-.6M153.345 830.1c.588-.706 4.823-2.509 13.154-5.314 10.514-3.54 22.756-6.147 39-8.307 25.327-3.367 43.702-8.207 79.048-20.82 24.405-8.71 57.207-17.527 72.952-19.61 3.3-.437 14.325-2.167 24.5-3.845 10.175-1.677 20.769-3.339 23.542-3.692a722.77 722.77 0 007.5-.99c1.352-.192 13.258-2.602 26.458-5.355 36.457-7.605 48.359-11.95 56.287-20.551 4.682-5.08 5.267-8.157 2.713-14.27-3.263-7.81-1.095-11.117 12.036-18.366 7.289-4.023 7.421-4.054 10.059-2.326 3.38 2.215 12.518 2.157 15.965-.102 2.781-1.822 3.298-6.009.858-6.945-.87-.334-3.007-.615-4.75-.624-3.168-.017-3.168-.017.195-2.17 2.734-1.75 3.714-1.934 5.237-.983 2.318 1.448 8.373 1.522 10.966.135 1.064-.57 1.934-1.867 1.934-2.884 0-1.97-2.578-3.044-7.357-3.067-2.325-.011-2.723-.34-2.14-1.764.395-.963.954-3.686 1.243-6.053.502-4.107.304-4.515-4.372-9-2.694-2.583-6.692-5.287-8.886-6.01-10.536-3.466-24.143-8.632-25.488-9.677-.825-.64-3.947-1.246-6.938-1.346-7.428-.247-10.062-2.116-10.062-7.14 0-5.712-1.77-8.738-6.404-10.947-4.605-2.195-30.402-6.63-44.096-7.58-11.205-.777-12.5-1.15-12.5-3.596 0-2.35-2.676-3.625-4.267-2.034-.623.623-2.168 1.133-3.433 1.133-1.265 0-2.3.45-2.3 1 0 .62-5.353 1-14.059 1-7.732 0-13.828-.374-13.545-.832.283-.457 3.71-1.403 7.615-2.1 7.14-1.277 13.989-.798 13.989.977 0 2.131 2.634.764 3.634-1.886.786-2.083 2.112-3.134 4.97-3.939 5.912-1.665 14.252-4.738 20.596-7.59 3.136-1.408 9.66-3.306 14.5-4.217 4.84-.912 9.556-2.036 10.48-2.5.925-.464 6.775-2.029 13-3.478 7.61-1.77 13.123-3.718 16.822-5.943 3.026-1.82 7.301-3.617 9.5-3.995 2.199-.378 5.348-1.068 6.998-1.533 1.65-.466 6.825-1.36 11.5-1.987 5.466-.733 11.275-2.356 16.277-4.549 4.277-1.875 13.952-5.008 21.5-6.962 15.8-4.092 25.704-8.562 27.756-12.53.766-1.482 2.08-2.957 2.918-3.279 3.132-1.202 11.15-1.707 14.019-.883 2 .575 3.82.429 5.58-.45 1.437-.716 6.4-1.974 11.03-2.797 4.631-.822 11.345-2.4 14.92-3.507 3.575-1.107 12.125-3.353 19-4.992 13.372-3.188 22.884-6.26 26.355-8.51 2.197-1.425 8.66-3.084 23.645-6.07 9.626-1.917 15.27-3.334 15.44-6.665" fill="none" stroke="#06c" stroke-width="3"/></svg>